<?xml version="1.0" encoding="utf-8"?>
<!-- Generator: Adobe Illustrator 24.2.3, SVG Export Plug-In . SVG Version: 6.00 Build 0)  -->
<svg version="1.1" id="Слой_1" xmlns="http://www.w3.org/2000/svg" xmlns:xlink="http://www.w3.org/1999/xlink" x="0px" y="0px"
	 viewBox="0 0 131.61 22.39" style="enable-background:new 0 0 131.61 22.39;" xml:space="preserve">
<style type="text/css">
	.st0{fill:#E56333;}
</style>
<g>
	<path class="st0" d="M89.1,7.5c0-1.91,0-3.69,0-5.47c0-1.72,0-1.72,1.75-1.89c0,5.42,0,10.84,0,16.32c-0.64,0-1.14,0-1.7,0
		c-0.03-0.5-0.05-0.94-0.07-1.2c-1.41,0.46-2.82,1.12-4.29,1.37c-2.08,0.36-4.06-0.21-5.65-1.64c-1.61-1.45-2.18-3.32-1.52-5.42
		c0.71-2.26,2.43-3.45,4.66-3.88C84.97,5.17,86.76,5.68,89.1,7.5z M83.86,13.73c1.57-0.21,3.12-0.23,4.45-1.17
		c1.11-0.79,1.13-2.19-0.05-2.84c-2.5-1.38-5.13-1.43-7.77-0.45c-0.8,0.3-1.35,0.91-1.36,1.81c-0.01,0.95,0.57,1.62,1.4,1.89
		C81.61,13.32,82.75,13.49,83.86,13.73z"/>
	<path class="st0" d="M118.92,12.17c3.35,1.71,6.81,2.11,10.35,0.95c0.03-0.17,0.07-0.34,0.1-0.51c-0.48-0.17-0.96-0.42-1.46-0.48
		c-1.7-0.21-3.41-0.32-5.11-0.52c-0.97-0.11-1.94-0.26-2.88-0.51c-0.9-0.24-1.68-0.7-1.81-1.79c-0.13-1.17,0.27-2.17,1.31-2.62
		c1.23-0.53,2.55-0.98,3.87-1.14c2.38-0.3,4.73-0.08,6.96,0.98c0.87,0.41,1.29,0.86,0.88,1.83c-0.16,0.37-0.21,0.8-0.33,1.31
		c-2.24-1.19-4.59-1.42-6.98-1.31c-0.87,0.04-1.74,0.15-2.58,0.36c-0.33,0.08-0.59,0.49-0.88,0.75c0.3,0.2,0.58,0.54,0.9,0.58
		c1.7,0.22,3.41,0.32,5.1,0.54c1.24,0.16,2.51,0.31,3.68,0.73c1.87,0.67,2.1,2.86,0.51,4.07c-0.33,0.25-0.7,0.5-1.09,0.61
		c-3.26,0.96-6.48,0.98-9.56-0.66C118.13,14.39,118.08,14.14,118.92,12.17z"/>
	<path class="st0" d="M105.98,11.42c0.75,1.36,1.77,1.82,2.93,2c2.4,0.37,4.73,0.16,6.91-0.96c1.19,1.42,1.17,1.76-0.17,2.8
		c-2.44,1.9-6.96,2.02-9.38,0.15c-1.81-1.4-2.35-3.36-1.9-5.53c0.5-2.4,2.25-3.66,4.51-4.13c1.07-0.22,2.24-0.19,3.33-0.03
		c2.67,0.4,4.6,3.06,4.16,5.7C113.02,11.42,109.64,11.42,105.98,11.42z M114.93,10.02c-1.77-2.22-7.04-2.19-8.47,0
		C109.26,10.02,112.02,10.02,114.93,10.02z"/>
	<path class="st0" d="M68.98,16.74c-1.71-0.02-3.35-0.25-4.76-1.33c-3.1-2.37-2.56-7.54,0.99-9.14c2.26-1.02,4.63-1.03,6.95-0.26
		c2.49,0.83,3.77,2.94,3.56,5.61c-0.2,2.56-2.01,4.48-4.66,4.9C70.37,16.64,69.67,16.67,68.98,16.74z M68.94,8.45
		c-1.25,0.3-2.56,0.44-3.71,0.95c-0.56,0.24-1.04,1.1-1.19,1.77c-0.18,0.81,0.41,1.45,1.2,1.76c2.45,0.97,4.91,0.94,7.36,0.02
		c0.84-0.32,1.41-0.96,1.38-1.91c-0.03-0.89-0.6-1.54-1.41-1.79C71.41,8.89,70.21,8.71,68.94,8.45z"/>
	<path class="st0" d="M29.04,22.39c0-0.39-0.02-0.66,0-0.93c0.07-0.83-0.11-1.88,0.33-2.43c0.35-0.45,1.46-0.31,2.23-0.41
		c1.19-0.15,1.98-0.87,2.52-1.84c0.14-0.26-0.02-0.79-0.2-1.1c-1.7-2.97-3.43-5.92-5.15-8.88c-0.13-0.23-0.24-0.48-0.43-0.89
		c1.35,0,2.56-0.05,3.76,0.04c0.26,0.02,0.56,0.46,0.74,0.77c1.16,2.03,2.29,4.07,3.5,6.25c0.78-1.27,1.49-2.42,2.19-3.57
		c0.43-0.72,0.92-1.41,1.27-2.17C40.33,6.06,41.13,5.6,42.45,6c-0.05,0.16-0.07,0.36-0.16,0.51c-2.44,4.04-4.84,8.09-7.34,12.09
		c-1.09,1.75-2.49,3.21-4.65,3.66C29.91,22.34,29.51,22.35,29.04,22.39z"/>
	<path class="st0" d="M60.43,9.5c-1.79-0.29-3.55-0.74-5.33-0.79c-1.16-0.03-2.42,0.35-3.5,0.85c-1.42,0.65-1.45,2.23-0.12,3.08
		c0.63,0.4,1.4,0.66,2.14,0.77c2.32,0.35,4.6,0.18,6.84-1.02c0.1,0.7,0.29,1.3,0.25,1.9c-0.02,0.42-0.24,0.96-0.56,1.19
		c-2.35,1.73-7.11,1.65-9.45-0.1c-2.98-2.22-2.44-7.46,0.96-9.08c2.15-1.02,4.42-1.03,6.65-0.39C60.73,6.6,61.02,7.25,60.43,9.5z"/>
	<path class="st0" d="M100.86,7.48c0-1.91,0-3.69,0-5.47c0-1.72,0-1.72,1.75-1.89c0,5.42,0,10.84,0,16.32c-0.64,0-1.14,0-1.7,0
		c-0.03-0.5-0.05-0.94-0.07-1.2c-1.41,0.46-2.82,1.12-4.29,1.37c-2.08,0.36-4.06-0.21-5.65-1.64c-1.61-1.45-2.18-3.32-1.52-5.42
		c0.71-2.26,2.43-3.45,4.66-3.88C96.73,5.16,98.52,5.67,100.86,7.48z M95.62,13.72c1.57-0.21,3.12-0.23,4.45-1.17
		c1.11-0.79,1.13-2.19-0.05-2.84c-2.5-1.38-5.13-1.43-7.77-0.45c-0.8,0.3-1.35,0.91-1.36,1.81c-0.01,0.95,0.57,1.62,1.4,1.89
		C93.37,13.31,94.51,13.48,95.62,13.72z"/>
	<path class="st0" d="M16.52,11.74c0.75,1.36,1.77,1.82,2.93,2c2.4,0.37,4.73,0.16,6.91-0.96c1.19,1.42,1.17,1.76-0.17,2.8
		c-2.44,1.9-6.96,2.02-9.38,0.15c-1.81-1.4-2.35-3.36-1.9-5.53c0.5-2.4,2.25-3.66,4.51-4.13c1.07-0.22,2.24-0.19,3.33-0.03
		c2.67,0.4,4.6,3.06,4.16,5.7C23.56,11.74,20.18,11.74,16.52,11.74z M25.47,10.35c-1.77-2.22-7.04-2.19-8.47,0
		C19.8,10.35,22.56,10.35,25.47,10.35z"/>
	<g>
		<path class="st0" d="M43.49,13.67c0.13,0,0.21,0.08,0.21,0.21v1.73c0,0.15-0.03,0.29-0.08,0.41l-0.92,2.45
			c-0.05,0.12-0.16,0.19-0.28,0.19h-1.09c-0.11,0-0.16-0.09-0.12-0.19l0.92-2.43h-0.65c-0.13,0-0.21-0.08-0.21-0.21v-1.95
			c0-0.13,0.08-0.21,0.21-0.21H43.49z"/>
	</g>
	<path class="st0" d="M1.71,16.52c-0.62,0-1.1,0-1.63,0C0.05,16.32,0,16.15,0,15.99c0.02-4.92,0.05-9.85,0.05-14.77
		c0-1.34,1.05-0.74,1.7-1.22c0,2.8,0,5.37,0,7.94c0.05,0,0.14,0.03,0.17,0.01c1.88-2.31,4.55-3.07,7.4-2.08
		c1.52,0.52,2.45,1.56,2.71,3.16c0.07,0.45,0.14,0.9,0.14,1.35c0.02,2.02,0.01,4.04,0.01,6.12c-0.6,0-1.1,0-1.74,0
		c0-1.26,0-2.47,0-3.68c-0.01-2.75-0.97-3.74-3.71-3.76c-0.83-0.01-1.68,0.04-2.5,0.2c-1.72,0.33-2.44,1.22-2.5,2.97
		c-0.03,0.7-0.01,1.4-0.01,2.1C1.71,15.02,1.71,15.72,1.71,16.52z"/>
</g>
</svg>
